<svg width="83" height="57" viewBox="0 0 83 57" fill="none" xmlns="http://www.w3.org/2000/svg">
<g id="M3 Logo">
<g id="3">
<path id="Vector" d="M52.5718 10.5781H58.5205C61.9162 10.5781 64.6819 13.3513 64.6819 16.7563C64.6819 19.0372 63.4423 21.0309 61.6012 22.0976C61.593 22.1058 61.5848 22.1099 61.5766 22.1099C60.8116 22.5529 59.9401 22.8319 59.0073 22.9016C58.9991 22.9057 58.9951 22.9057 58.991 22.9057H58.9828C58.9173 22.9098 58.8519 22.9139 58.7864 22.918V30.0275H68.9368C68.8877 29.9864 68.8386 29.9454 68.7895 29.9085C69.0268 29.7198 69.2641 29.527 69.4932 29.3301C72.9831 26.2656 75.1924 21.7653 75.1924 16.7563C75.1924 12.8754 73.8668 9.30224 71.6452 6.45929C68.5891 2.55792 63.8432 0.0390625 58.5246 0.0390625H52.5759V10.5781H52.5718Z" fill="url(#paint0_linear_13_763)"/>
<g id="Vector_2" style="mix-blend-mode:multiply" opacity="0.3">
<path d="M71.6378 6.45628C70.7255 5.2912 69.6618 4.2574 68.4794 3.36719C69.1422 5.04096 69.539 6.84601 69.6249 8.7249C69.854 13.8611 66.9206 18.5091 62.7516 21.2248C62.3998 21.5571 62.0152 21.8525 61.5938 22.0946C61.5856 22.1028 61.5774 22.1069 61.5692 22.1069C60.9637 22.4556 60.2887 22.6976 59.5727 22.8207C59.3109 22.9191 59.0408 23.0053 58.7749 23.0873V30.0244H68.9253C68.8762 29.9834 68.8271 29.9424 68.778 29.9055C69.0153 29.7168 69.2526 29.524 69.4817 29.327C72.9716 26.2626 75.1809 21.7623 75.1809 16.7533C75.1809 12.8724 73.8553 9.29923 71.6337 6.45628H71.6378Z" fill="#6B1DB7"/>
</g>
<path id="Vector_3" d="M82.7636 39.3255C82.7636 43.2064 81.438 46.7795 79.2165 49.6184C76.1603 53.5238 71.4145 56.0386 66.0958 56.0386H57.9583C56.7596 56.0386 55.3972 55.2592 54.6444 54.1228C54.583 54.0366 54.5298 53.9423 54.4766 53.852C52.7583 50.767 53.012 45.4996 53.012 45.4996H66.0958C66.3986 45.4996 66.6931 45.4791 66.9836 45.434H66.9918C69.9662 44.9991 72.2532 42.4228 72.2532 39.3255C72.2532 37.0405 71.0176 35.0467 69.1724 33.9801C69.1643 33.9719 69.1561 33.9678 69.1479 33.9678C68.3787 33.5247 67.5073 33.2458 66.5745 33.176C66.5663 33.1719 66.5622 33.1719 66.5581 33.1719H66.5499L66.3536 33.1596V31.8387H78.2878V27.9414C81.0617 30.9279 82.7636 34.9278 82.7636 39.3255Z" fill="url(#paint1_linear_13_763)"/>
<g id="Group">
<path id="Vector_4" d="M71.6364 6.48066C70.1103 16.7981 64.894 20.3426 61.5923 21.7784C61.5841 21.7866 61.5759 21.7907 61.5678 21.7907C60.3608 22.3159 59.4076 22.5169 58.9984 22.5825C58.9903 22.5866 58.9862 22.5866 58.9821 22.5866H58.9739C58.888 22.5989 58.8307 22.6071 58.798 22.6071C58.7939 22.6071 58.7939 22.6071 58.7898 22.6071V33.1872C65.2826 32.859 69.8485 29.1709 69.8485 29.1709C73.3383 26.1064 75.1835 21.6184 75.1835 16.6094C75.1835 12.7286 73.8579 9.31541 71.6364 6.47656V6.48066Z" fill="url(#paint2_linear_13_763)"/>
<g id="Group_2" style="mix-blend-mode:multiply" opacity="0.3">
<path id="Vector_5" d="M77.061 26.7595C74.189 24.2406 69.3817 24.335 65.2864 24.2734L66.3501 31.8259C67.5775 32.5315 68.7067 33.3848 69.7254 34.3571C70.3964 34.8494 70.965 35.4729 71.3946 36.1909C73.8248 39.2594 75.3141 43.1485 75.4982 47.3206C75.5964 49.4785 75.0931 51.7799 74.1971 53.9337C76.1405 52.8424 77.8466 51.3779 79.2171 49.6344C81.4387 46.7955 82.7642 43.2182 82.7642 39.3374C82.7642 34.3284 80.555 29.8281 77.0651 26.7636L77.061 26.7595Z" fill="#6B1DB7"/>
</g>
<path id="Vector_6" d="M77.0581 26.7574C77.0581 26.7574 71.8008 21.9289 63.9578 22.6181H58.7087V33.153H66.3471C66.3471 33.153 66.3553 33.153 66.3676 33.1571C66.3962 33.1571 66.4535 33.1653 66.5435 33.1776H66.5517C66.5517 33.1776 66.5599 33.1776 66.5681 33.1817C66.9813 33.2474 67.9304 33.4443 69.1374 33.9735C69.1456 33.9735 69.1537 33.9776 69.1619 33.9858C72.4636 35.4216 77.6799 39.3066 79.206 49.6241C81.4275 46.7852 82.7531 43.208 82.7531 39.3271C82.7531 34.3181 80.5438 29.8178 77.054 26.7533L77.0581 26.7574Z" fill="url(#paint3_linear_13_763)"/>
<g id="Group_3" style="mix-blend-mode:overlay" opacity="0.5">
<path id="Vector_7" d="M59.8048 23.71H65.0541C72.8974 23.0167 78.1549 27.8454 78.1549 27.8454C78.2449 27.9233 78.3308 28.0095 78.4167 28.0874C77.9871 27.6156 77.5371 27.1644 77.0584 26.7459C77.0584 26.7459 71.8009 21.9172 63.9576 22.6064H58.7083V33.1418H59.8048V23.7059V23.71Z" fill="url(#paint4_linear_13_763)"/>
<path id="Vector_8" d="M74.0984 37.5781C76.3037 40.0192 78.3412 43.7935 79.2045 49.6192C79.4541 49.2992 79.6914 48.9668 79.9205 48.6263C78.734 43.0961 76.4182 39.6786 74.0984 37.5781Z" fill="url(#paint5_linear_13_763)"/>
</g>
</g>
<path id="Vector_9" style="mix-blend-mode:overlay" opacity="0.5" d="M66.9843 45.4258L56.8743 47.5468C56.8743 47.5468 54.7263 48.2812 54.6444 54.115C54.5831 54.0289 54.5299 53.9345 54.4767 53.8442C52.7583 50.7591 53.012 45.4914 53.012 45.4914L66.9843 45.4258Z" fill="url(#paint6_linear_13_763)"/>
<path id="Vector_10" style="mix-blend-mode:overlay" opacity="0.5" d="M52.5718 10.5744L54.638 1.75393L60.4028 0.145729L52.5718 0.0390625V10.5744Z" fill="url(#paint7_linear_13_763)"/>
</g>
<g id="M">
<g id="Group_4">
<path id="Vector_11" d="M10.5436 46.4534L10.4617 0.0390625H0.769531V46.6995C0.79817 52.8818 3.13428 55.4991 5.30265 56.0242H14.7657C12.581 55.495 10.5395 52.7341 10.5395 46.4534H10.5436Z" fill="url(#paint8_linear_13_763)"/>
<path id="Vector_12" style="mix-blend-mode:multiply" d="M10.4559 0.0390625H0.763672V26.9343H10.4559V0.0390625Z" fill="url(#paint9_linear_13_763)"/>
<g id="Vector_13" style="mix-blend-mode:multiply" opacity="0.3">
<path d="M10.4563 20.7365L0.763672 0.0390625H4.70783H10.4563V20.7365Z" fill="#6B1DB7"/>
</g>
</g>
<g id="Group_5">
<path id="Vector_14" d="M49.0118 46.4534L48.93 0.0390625H39.2378V46.6995C39.2664 52.8818 41.6025 55.4991 43.7709 56.0242H53.234C51.0493 55.495 49.0077 52.7341 49.0077 46.4534H49.0118Z" fill="url(#paint10_linear_13_763)"/>
<path id="Vector_15" style="mix-blend-mode:multiply" d="M39.2426 26.9375H48.9348V0.0422974H39.2426V26.9375Z" fill="url(#paint11_linear_13_763)"/>
<g id="Vector_16" style="mix-blend-mode:multiply" opacity="0.3">
<path d="M39.2378 18.6565L48.9304 0.0390625H39.2378V18.6565Z" fill="#6B1DB7"/>
</g>
</g>
<g id="Group_6">
<path id="Vector_17" d="M48.933 0.0390625L39.4167 13.8066L32.1793 23.7713L21.3579 22.2945L37.0724 0.0390625H48.933Z" fill="url(#paint12_linear_13_763)"/>
<path id="Vector_18" style="mix-blend-mode:multiply" d="M35.9138 18.4651L31.049 25.3697L25.1164 33.7923L19.1838 25.3697L25.1164 16.9431L27.0967 14.1328L35.9138 18.4651Z" fill="url(#paint13_linear_13_763)"/>
<g id="Vector_19" style="mix-blend-mode:multiply" opacity="0.3">
<path d="M31.0081 18.9269C28.7578 18.9269 26.7407 18.1884 25.1083 16.9576L19.1838 25.372L25.1164 33.7946L31.049 25.372L37.1903 16.8633C35.4432 18.1843 33.1889 18.9269 31.004 18.9269H31.0081Z" fill="#6B1DB7"/>
</g>
<path id="Vector_20" d="M34.623 20.4074C33.1828 21.8432 28.3715 21.474 25.1149 16.9532L12.6242 0.0390625H0.763672L19.1825 25.3754L25.1149 33.7975L31.0472 25.3754L34.623 20.4033V20.4074Z" fill="url(#paint14_linear_13_763)"/>
<path id="Vector_21" style="mix-blend-mode:overlay" opacity="0.5" d="M0.763672 0.0390625L12.0801 2.88611L24.2639 15.743L12.6242 0.0390625H0.763672Z" fill="url(#paint15_linear_13_763)"/>
<path id="Vector_22" style="mix-blend-mode:overlay" opacity="0.5" d="M26.7959 14.3242L37.8346 3.03393L48.9265 0.0390625H37.0654L26.7959 14.3242Z" fill="url(#paint16_linear_13_763)"/>
</g>
</g>
</g>
<defs>
<linearGradient id="paint0_linear_13_763" x1="51.4835" y1="6.77107" x2="65.6945" y2="18.3143" gradientUnits="userSpaceOnUse">
<stop stop-color="#00B581"/>
<stop offset="0.22" stop-color="#01AE7C"/>
<stop offset="0.51" stop-color="#059D6E"/>
<stop offset="0.86" stop-color="#0B8057"/>
<stop offset="1" stop-color="#0F724C"/>
</linearGradient>
<linearGradient id="paint1_linear_13_763" x1="52.9997" y1="41.9921" x2="82.7636" y2="41.9921" gradientUnits="userSpaceOnUse">
<stop stop-color="#00B581"/>
<stop offset="0.22" stop-color="#01AE7C"/>
<stop offset="0.51" stop-color="#059D6E"/>
<stop offset="0.86" stop-color="#0B8057"/>
<stop offset="1" stop-color="#0F724C"/>
</linearGradient>
<linearGradient id="paint2_linear_13_763" x1="58.2007" y1="36.8301" x2="74.245" y2="10.1251" gradientUnits="userSpaceOnUse">
<stop stop-color="#00B581"/>
<stop offset="0.22" stop-color="#01AE7C"/>
<stop offset="0.51" stop-color="#059D6E"/>
<stop offset="0.86" stop-color="#0B8057"/>
<stop offset="1" stop-color="#0F724C"/>
</linearGradient>
<linearGradient id="paint3_linear_13_763" x1="62.8082" y1="20.6736" x2="79.0127" y2="47.6408" gradientUnits="userSpaceOnUse">
<stop stop-color="#00B581"/>
<stop offset="0.22" stop-color="#01AE7C"/>
<stop offset="0.51" stop-color="#059D6E"/>
<stop offset="0.86" stop-color="#0B8057"/>
<stop offset="1" stop-color="#0F724C"/>
</linearGradient>
<linearGradient id="paint4_linear_13_763" x1="63.5443" y1="35.0536" x2="68.7258" y2="25.0876" gradientUnits="userSpaceOnUse">
<stop stop-color="white"/>
<stop offset="0.11" stop-color="white" stop-opacity="0.98"/>
<stop offset="0.23" stop-color="white" stop-opacity="0.93"/>
<stop offset="0.36" stop-color="white" stop-opacity="0.84"/>
<stop offset="0.5" stop-color="white" stop-opacity="0.71"/>
<stop offset="0.64" stop-color="white" stop-opacity="0.55"/>
<stop offset="0.78" stop-color="white" stop-opacity="0.36"/>
<stop offset="0.93" stop-color="white" stop-opacity="0.13"/>
<stop offset="1" stop-color="white" stop-opacity="0"/>
</linearGradient>
<linearGradient id="paint5_linear_13_763" x1="73.7179" y1="38.0089" x2="79.9412" y2="48.3694" gradientUnits="userSpaceOnUse">
<stop stop-color="white"/>
<stop offset="0.11" stop-color="white" stop-opacity="0.98"/>
<stop offset="0.23" stop-color="white" stop-opacity="0.93"/>
<stop offset="0.36" stop-color="white" stop-opacity="0.84"/>
<stop offset="0.5" stop-color="white" stop-opacity="0.71"/>
<stop offset="0.64" stop-color="white" stop-opacity="0.55"/>
<stop offset="0.78" stop-color="white" stop-opacity="0.36"/>
<stop offset="0.93" stop-color="white" stop-opacity="0.13"/>
<stop offset="1" stop-color="white" stop-opacity="0"/>
</linearGradient>
<linearGradient id="paint6_linear_13_763" x1="52.8278" y1="51.6699" x2="62.424" y2="43.4044" gradientUnits="userSpaceOnUse">
<stop stop-color="white"/>
<stop offset="0.11" stop-color="white" stop-opacity="0.98"/>
<stop offset="0.23" stop-color="white" stop-opacity="0.93"/>
<stop offset="0.36" stop-color="white" stop-opacity="0.84"/>
<stop offset="0.5" stop-color="white" stop-opacity="0.71"/>
<stop offset="0.64" stop-color="white" stop-opacity="0.55"/>
<stop offset="0.78" stop-color="white" stop-opacity="0.36"/>
<stop offset="0.93" stop-color="white" stop-opacity="0.13"/>
<stop offset="1" stop-color="white" stop-opacity="0"/>
</linearGradient>
<linearGradient id="paint7_linear_13_763" x1="52.2404" y1="9.92624" x2="56.7492" y2="-0.456628" gradientUnits="userSpaceOnUse">
<stop stop-color="white"/>
<stop offset="0.11" stop-color="white" stop-opacity="0.98"/>
<stop offset="0.23" stop-color="white" stop-opacity="0.93"/>
<stop offset="0.36" stop-color="white" stop-opacity="0.84"/>
<stop offset="0.5" stop-color="white" stop-opacity="0.71"/>
<stop offset="0.64" stop-color="white" stop-opacity="0.55"/>
<stop offset="0.78" stop-color="white" stop-opacity="0.36"/>
<stop offset="0.93" stop-color="white" stop-opacity="0.13"/>
<stop offset="1" stop-color="white" stop-opacity="0"/>
</linearGradient>
<linearGradient id="paint8_linear_13_763" x1="7.76559" y1="55.3022" x2="7.76559" y2="12.1616" gradientUnits="userSpaceOnUse">
<stop stop-color="#00B581"/>
<stop offset="0.22" stop-color="#01AE7C"/>
<stop offset="0.51" stop-color="#059D6E"/>
<stop offset="0.86" stop-color="#0B8057"/>
<stop offset="1" stop-color="#0F724C"/>
</linearGradient>
<linearGradient id="paint9_linear_13_763" x1="5.60773" y1="26.2574" x2="5.60773" y2="2.41844" gradientUnits="userSpaceOnUse">
<stop stop-color="#6B1DB7" stop-opacity="0"/>
<stop offset="0.11" stop-color="#6B1DB7" stop-opacity="0.05"/>
<stop offset="0.28" stop-color="#6B1DB7" stop-opacity="0.18"/>
<stop offset="0.5" stop-color="#6B1DB7" stop-opacity="0.39"/>
<stop offset="0.76" stop-color="#6B1DB7" stop-opacity="0.68"/>
<stop offset="1" stop-color="#6B1DB7"/>
</linearGradient>
<linearGradient id="paint10_linear_13_763" x1="46.2339" y1="0.0390625" x2="46.2339" y2="0.0390625" gradientUnits="userSpaceOnUse">
<stop stop-color="#00B581"/>
<stop offset="0.22" stop-color="#01AE7C"/>
<stop offset="0.51" stop-color="#059D6E"/>
<stop offset="0.86" stop-color="#0B8057"/>
<stop offset="1" stop-color="#0F724C"/>
</linearGradient>
<linearGradient id="paint11_linear_13_763" x1="44.0908" y1="26.2606" x2="44.0908" y2="2.42168" gradientUnits="userSpaceOnUse">
<stop stop-color="#6B1DB7" stop-opacity="0"/>
<stop offset="0.11" stop-color="#6B1DB7" stop-opacity="0.05"/>
<stop offset="0.29" stop-color="#6B1DB7" stop-opacity="0.2"/>
<stop offset="0.53" stop-color="#6B1DB7" stop-opacity="0.43"/>
<stop offset="0.81" stop-color="#6B1DB7" stop-opacity="0.75"/>
<stop offset="1" stop-color="#6B1DB7"/>
</linearGradient>
<linearGradient id="paint12_linear_13_763" x1="21.3579" y1="11.9072" x2="48.933" y2="11.9072" gradientUnits="userSpaceOnUse">
<stop stop-color="#00B581"/>
<stop offset="0.22" stop-color="#01AE7C"/>
<stop offset="0.51" stop-color="#059D6E"/>
<stop offset="0.86" stop-color="#0B8057"/>
<stop offset="1" stop-color="#0F724C"/>
</linearGradient>
<linearGradient id="paint13_linear_13_763" x1="30.4558" y1="16.0897" x2="27.9861" y2="21.0157" gradientUnits="userSpaceOnUse">
<stop stop-color="#6B1DB7" stop-opacity="0"/>
<stop offset="0.11" stop-color="#6B1DB7" stop-opacity="0.03"/>
<stop offset="0.27" stop-color="#6B1DB7" stop-opacity="0.13"/>
<stop offset="0.45" stop-color="#6B1DB7" stop-opacity="0.29"/>
<stop offset="0.64" stop-color="#6B1DB7" stop-opacity="0.5"/>
<stop offset="0.85" stop-color="#6B1DB7" stop-opacity="0.78"/>
<stop offset="1" stop-color="#6B1DB7"/>
</linearGradient>
<linearGradient id="paint14_linear_13_763" x1="0.763672" y1="16.9204" x2="34.623" y2="16.9204" gradientUnits="userSpaceOnUse">
<stop stop-color="#00B581"/>
<stop offset="0.22" stop-color="#01AE7C"/>
<stop offset="0.51" stop-color="#059D6E"/>
<stop offset="0.86" stop-color="#0B8057"/>
<stop offset="1" stop-color="#0F724C"/>
</linearGradient>
<linearGradient id="paint15_linear_13_763" x1="19.9026" y1="16.506" x2="5.53595" y2="-1.30946" gradientUnits="userSpaceOnUse">
<stop stop-color="white"/>
<stop offset="0.11" stop-color="white" stop-opacity="0.98"/>
<stop offset="0.23" stop-color="white" stop-opacity="0.93"/>
<stop offset="0.36" stop-color="white" stop-opacity="0.84"/>
<stop offset="0.5" stop-color="white" stop-opacity="0.71"/>
<stop offset="0.64" stop-color="white" stop-opacity="0.55"/>
<stop offset="0.78" stop-color="white" stop-opacity="0.36"/>
<stop offset="0.93" stop-color="white" stop-opacity="0.13"/>
<stop offset="1" stop-color="white" stop-opacity="0"/>
</linearGradient>
<linearGradient id="paint16_linear_13_763" x1="32.1107" y1="15.7314" x2="43.8806" y2="-1.67491" gradientUnits="userSpaceOnUse">
<stop stop-color="white"/>
<stop offset="0.11" stop-color="white" stop-opacity="0.98"/>
<stop offset="0.23" stop-color="white" stop-opacity="0.93"/>
<stop offset="0.36" stop-color="white" stop-opacity="0.84"/>
<stop offset="0.5" stop-color="white" stop-opacity="0.71"/>
<stop offset="0.64" stop-color="white" stop-opacity="0.55"/>
<stop offset="0.78" stop-color="white" stop-opacity="0.36"/>
<stop offset="0.93" stop-color="white" stop-opacity="0.13"/>
<stop offset="1" stop-color="white" stop-opacity="0"/>
</linearGradient>
</defs>
</svg>
