<svg width="24" height="24" viewBox="0 0 24 24" fill="none" xmlns="http://www.w3.org/2000/svg">
<g id="calendar_view_day">
<mask id="mask0_110_273" style="mask-type:alpha" maskUnits="userSpaceOnUse" x="0" y="0" width="24" height="24">
<rect id="Bounding box" width="24" height="24" fill="#D9D9D9"/>
</mask>
<g mask="url(#mask0_110_273)">
<path id="calendar_view_day_2" d="M5.3077 16.5001C4.80898 16.5001 4.38302 16.3235 4.02982 15.9703C3.67661 15.6171 3.5 15.1911 3.5 14.6924V9.30784C3.5 8.80912 3.67661 8.38316 4.02982 8.02996C4.38302 7.67674 4.80898 7.50014 5.3077 7.50014H18.6923C19.191 7.50014 19.6169 7.67674 19.9701 8.02996C20.3233 8.38316 20.5 8.80912 20.5 9.30784V14.6924C20.5 15.1911 20.3233 15.6171 19.9701 15.9703C19.6169 16.3235 19.191 16.5001 18.6923 16.5001H5.3077ZM5.3077 15.0001H18.6923C18.782 15.0001 18.8557 14.9713 18.9134 14.9136C18.9711 14.8559 19 14.7821 19 14.6924V9.30784C19 9.21809 18.9711 9.14436 18.9134 9.08666C18.8557 9.02896 18.782 9.00011 18.6923 9.00011H5.3077C5.21795 9.00011 5.14423 9.02896 5.08653 9.08666C5.02883 9.14436 4.99997 9.21809 4.99997 9.30784V14.6924C4.99997 14.7821 5.02883 14.8559 5.08653 14.9136C5.14423 14.9713 5.21795 15.0001 5.3077 15.0001ZM4.225 5.30784C4.01858 5.30784 3.84615 5.23604 3.7077 5.09244C3.56923 4.94885 3.5 4.77065 3.5 4.55784C3.5 4.34502 3.5718 4.16682 3.7154 4.02324C3.85898 3.87965 4.03718 3.80786 4.25 3.80786H19.775C19.9814 3.80786 20.1538 3.87965 20.2922 4.02324C20.4307 4.16682 20.5 4.34502 20.5 4.55784C20.5 4.77065 20.4282 4.94885 20.2845 5.09244C20.141 5.23604 19.9628 5.30784 19.75 5.30784H4.225ZM4.225 20.1924C4.01858 20.1924 3.84615 20.1206 3.7077 19.977C3.56923 19.8334 3.5 19.6552 3.5 19.4424C3.5 19.2296 3.5718 19.0514 3.7154 18.9078C3.85898 18.7642 4.03718 18.6924 4.25 18.6924H19.775C19.9814 18.6924 20.1538 18.7642 20.2922 18.9078C20.4307 19.0514 20.5 19.2296 20.5 19.4424C20.5 19.6552 20.4282 19.8334 20.2845 19.977C20.141 20.1206 19.9628 20.1924 19.75 20.1924H4.225ZM4.99997 9.00011H5.3077C5.21795 9.00011 5.14423 9.02896 5.08653 9.08666C5.02883 9.14436 4.99997 9.21809 4.99997 9.30784V14.6924C4.99997 14.7821 5.02883 14.8559 5.08653 14.9136C5.14423 14.9713 5.21795 15.0001 5.3077 15.0001H4.99997V9.00011Z" fill="#464646"/>
</g>
</g>
</svg>
