<svg width="24" height="24" viewBox="0 0 24 24" fill="none" xmlns="http://www.w3.org/2000/svg">
<g id="call">
<mask id="mask0_110_238" style="mask-type:alpha" maskUnits="userSpaceOnUse" x="0" y="0" width="24" height="24">
<rect id="Bounding box" width="24" height="24" fill="#D9D9D9"/>
</mask>
<g mask="url(#mask0_110_238)">
<path id="call_2" d="M19.4307 20.4422C17.4859 20.4422 15.5599 19.9807 13.6529 19.0576C11.7459 18.1346 10.0433 16.924 8.54524 15.4259C7.04715 13.9278 5.83498 12.2269 4.90871 10.3231C3.98243 8.41922 3.51929 6.49487 3.51929 4.55C3.51929 4.25 3.61929 4 3.81929 3.8C4.01929 3.6 4.26929 3.5 4.56929 3.5H7.83076C8.08975 3.5 8.31571 3.57981 8.50866 3.73942C8.7016 3.89904 8.82115 4.10513 8.86731 4.3577L9.44039 7.29997C9.48012 7.54612 9.47595 7.76984 9.42789 7.97113C9.3798 8.17241 9.27435 8.34805 9.11154 8.49805L6.81154 10.7461C7.60129 12.0872 8.54296 13.2987 9.63656 14.3808C10.7301 15.4628 11.968 16.4064 13.35 17.2115L15.5846 14.9384C15.7475 14.7756 15.9401 14.6599 16.1625 14.5914C16.3849 14.5228 16.6128 14.5083 16.8462 14.5481L19.623 15.1135C19.8756 15.1699 20.0817 15.292 20.2413 15.4798C20.4009 15.6676 20.4807 15.891 20.4807 16.15V19.3922C20.4807 19.6922 20.3807 19.9422 20.1807 20.1422C19.9807 20.3422 19.7307 20.4422 19.4307 20.4422ZM6.09234 9.32692L7.87696 7.61922C7.90901 7.59357 7.92985 7.55832 7.93946 7.51345C7.94908 7.46857 7.94747 7.4269 7.93464 7.38845L7.50004 5.15382C7.4872 5.10254 7.46476 5.06408 7.43271 5.03845C7.40066 5.0128 7.359 4.99997 7.30771 4.99997H5.16926C5.1308 4.99997 5.09874 5.0128 5.07309 5.03845C5.04745 5.06408 5.03464 5.09613 5.03464 5.1346C5.0859 5.81793 5.19776 6.51217 5.37021 7.2173C5.54265 7.92243 5.78335 8.62564 6.09234 9.32692ZM18.8462 18.9115C18.8846 18.9115 18.9167 18.8987 18.9423 18.873C18.968 18.8474 18.9808 18.8153 18.9808 18.7769V16.673C18.9808 16.6218 18.968 16.5801 18.9423 16.548C18.9167 16.516 18.8782 16.4935 18.8269 16.4807L16.7269 16.0538C16.6885 16.041 16.6548 16.0394 16.626 16.049C16.5971 16.0586 16.5667 16.0794 16.5346 16.1115L14.7538 17.9115C15.4167 18.2205 16.108 18.4567 16.8279 18.6202C17.5478 18.7836 18.2205 18.8807 18.8462 18.9115Z" fill="#464646"/>
</g>
</g>
</svg>
