<svg width="24" height="24" viewBox="0 0 24 24" fill="none" xmlns="http://www.w3.org/2000/svg">
<g id="contract_edit">
<mask id="mask0_110_257" style="mask-type:alpha" maskUnits="userSpaceOnUse" x="0" y="0" width="24" height="24">
<rect id="Bounding box" width="24" height="24" fill="#D9D9D9"/>
</mask>
<g mask="url(#mask0_110_257)">
<path id="contract_edit_2" d="M5.99997 21.5C5.30128 21.5 4.70993 21.258 4.22595 20.774C3.74198 20.29 3.5 19.6987 3.5 19V17.9231C3.5 17.4243 3.67661 16.9984 4.02982 16.6452C4.38302 16.292 4.80898 16.1154 5.3077 16.1154H6.5V4.3077C6.5 3.80898 6.67661 3.38302 7.02982 3.02982C7.38302 2.67661 7.80898 2.5 8.3077 2.5H18.6922C19.191 2.5 19.6169 2.67661 19.9701 3.02982C20.3233 3.38302 20.5 3.80898 20.5 4.3077V11.0038C20.25 10.9525 19.9974 10.9388 19.7423 10.9625C19.4871 10.9862 19.2397 11.0455 19 11.1404V4.3077C19 4.21795 18.9711 4.14423 18.9134 4.08653C18.8557 4.02883 18.782 3.99998 18.6922 3.99998H8.3077C8.21795 3.99998 8.14423 4.02883 8.08652 4.08653C8.02882 4.14423 7.99997 4.21795 7.99997 4.3077V16.1154H13.5576L12.0577 17.6153H5.3077C5.21795 17.6153 5.14423 17.6442 5.08652 17.7019C5.02882 17.7596 4.99997 17.8333 4.99997 17.9231V19C4.99997 19.2833 5.09581 19.5208 5.28747 19.7125C5.47914 19.9041 5.71664 20 5.99997 20H11.8077V21.5H5.99997ZM15.1922 20.3077H16.2422L20.1077 16.4577L20.9461 17.2961L17.0134 21.2288C16.9198 21.3224 16.8185 21.391 16.7095 21.4346C16.6006 21.4782 16.4858 21.5 16.3653 21.5H14.9038C14.6461 21.5 14.4311 21.4137 14.2586 21.2413C14.0862 21.0688 14 20.8538 14 20.5961V19.1442C14 19.0237 14.0218 18.9089 14.0653 18.8C14.1089 18.691 14.1775 18.5897 14.2711 18.4961L18.2038 14.5635L19.0577 15.4077L15.1922 19.2577V20.3077ZM20.9461 17.2961L18.2038 14.5635L19.3865 13.3808C19.557 13.2167 19.7695 13.1346 20.024 13.1346C20.2785 13.1346 20.4878 13.2167 20.6519 13.3808L22.1288 14.8577C22.2929 15.0218 22.3749 15.231 22.3749 15.4855C22.3749 15.74 22.2929 15.9525 22.1288 16.123L20.9461 17.2961ZM9.94227 8.69225C9.72946 8.69225 9.55126 8.62046 9.40768 8.47688C9.26409 8.33329 9.1923 8.15509 9.1923 7.94228C9.1923 7.72946 9.26409 7.55126 9.40768 7.40768C9.55126 7.26409 9.72946 7.1923 9.94227 7.1923H17.0577C17.2705 7.1923 17.4487 7.26409 17.5923 7.40768C17.7359 7.55126 17.8077 7.72946 17.8077 7.94228C17.8077 8.15509 17.7359 8.33329 17.5923 8.47688C17.4487 8.62046 17.2705 8.69225 17.0577 8.69225H9.94227ZM9.94227 11.5769C9.72946 11.5769 9.55126 11.5051 9.40768 11.3615C9.26409 11.2179 9.1923 11.0397 9.1923 10.8269C9.1923 10.6141 9.26409 10.4359 9.40768 10.2923C9.55126 10.1487 9.72946 10.0769 9.94227 10.0769H17.0577C17.2705 10.0769 17.4487 10.1487 17.5923 10.2923C17.7359 10.4359 17.8077 10.6141 17.8077 10.8269C17.8077 11.0397 17.7359 11.2179 17.5923 11.3615C17.4487 11.5051 17.2705 11.5769 17.0577 11.5769H9.94227Z" fill="#464646"/>
</g>
</g>
</svg>
