<svg width="24" height="24" viewBox="0 0 24 24" fill="none" xmlns="http://www.w3.org/2000/svg">
<g id="event_available">
<mask id="mask0_110_268" style="mask-type:alpha" maskUnits="userSpaceOnUse" x="0" y="0" width="24" height="24">
<rect id="Bounding box" width="24" height="24" fill="#D9D9D9"/>
</mask>
<g mask="url(#mask0_110_268)">
<path id="event_available_2" d="M10.95 15.8155L14.6269 12.1386C14.7756 11.9899 14.9548 11.9139 15.1644 11.9107C15.374 11.9075 15.5564 11.9835 15.7115 12.1386C15.8666 12.2937 15.9442 12.4745 15.9442 12.6809C15.9442 12.8873 15.8666 13.068 15.7115 13.2232L11.5827 17.352C11.4019 17.5328 11.191 17.6232 10.95 17.6232C10.709 17.6232 10.4981 17.5328 10.3173 17.352L8.28845 15.3232C8.13973 15.1745 8.06378 14.9953 8.06058 14.7857C8.05736 14.5761 8.13332 14.3937 8.28845 14.2386C8.44357 14.0835 8.62433 14.0059 8.83075 14.0059C9.03715 14.0059 9.21791 14.0835 9.37303 14.2386L10.95 15.8155ZM5.3077 21.5001C4.80257 21.5001 4.375 21.3251 4.025 20.9751C3.675 20.6251 3.5 20.1975 3.5 19.6924V6.30784C3.5 5.80271 3.675 5.37514 4.025 5.02514C4.375 4.67514 4.80257 4.50014 5.3077 4.50014H6.69233V3.15397C6.69233 2.93475 6.76573 2.75174 6.91253 2.60494C7.05931 2.45816 7.24232 2.38477 7.46155 2.38477C7.68077 2.38477 7.86378 2.45816 8.01058 2.60494C8.15736 2.75174 8.23075 2.93475 8.23075 3.15397V4.50014H15.8077V3.13474C15.8077 2.92192 15.8794 2.74372 16.023 2.60014C16.1666 2.45656 16.3448 2.38477 16.5576 2.38477C16.7704 2.38477 16.9486 2.45656 17.0922 2.60014C17.2358 2.74372 17.3076 2.92192 17.3076 3.13474V4.50014H18.6923C19.1974 4.50014 19.625 4.67514 19.975 5.02514C20.325 5.37514 20.5 5.80271 20.5 6.30784V19.6924C20.5 20.1975 20.325 20.6251 19.975 20.9751C19.625 21.3251 19.1974 21.5001 18.6923 21.5001H5.3077ZM5.3077 20.0001H18.6923C18.7692 20.0001 18.8397 19.9681 18.9038 19.904C18.9679 19.8398 19 19.7693 19 19.6924V10.3078H4.99997V19.6924C4.99997 19.7693 5.03202 19.8398 5.09612 19.904C5.16024 19.9681 5.23077 20.0001 5.3077 20.0001ZM4.99997 8.80787H19V6.30784C19 6.23091 18.9679 6.16038 18.9038 6.09627C18.8397 6.03217 18.7692 6.00012 18.6923 6.00012H5.3077C5.23077 6.00012 5.16024 6.03217 5.09612 6.09627C5.03202 6.16038 4.99997 6.23091 4.99997 6.30784V8.80787Z" fill="#464646"/>
</g>
</g>
</svg>
