<svg width="24" height="24" viewBox="0 0 24 24" fill="none" xmlns="http://www.w3.org/2000/svg">
<g id="Instagram_logo_2016 1">
<path id="Vector" d="M11.7277 3C9.35763 3 9.06018 3.01036 8.1293 3.05273C7.20024 3.09527 6.56607 3.24236 6.01118 3.45817C5.4372 3.68107 4.9503 3.97924 4.46523 4.4645C3.97979 4.94958 3.68162 5.43647 3.45799 6.01027C3.24163 6.56535 3.09436 7.19969 3.05254 8.12839C3.01091 9.05928 3 9.3569 3 11.727C3 14.0971 3.01055 14.3937 3.05273 15.3245C3.09545 16.2536 3.24254 16.8878 3.45817 17.4427C3.68125 18.0166 3.97942 18.5035 4.46468 18.9886C4.94958 19.4741 5.43647 19.773 6.01009 19.9959C6.56535 20.2117 7.19969 20.3588 8.12857 20.4013C9.05945 20.4437 9.35672 20.454 11.7266 20.454C14.0969 20.454 14.3935 20.4437 15.3244 20.4013C16.2534 20.3588 16.8883 20.2117 17.4436 19.9959C18.0174 19.773 18.5035 19.4741 18.9884 18.9886C19.4739 18.5035 19.772 18.0166 19.9957 17.4428C20.2102 16.8878 20.3575 16.2534 20.4011 15.3247C20.4429 14.3938 20.4538 14.0971 20.4538 11.727C20.4538 9.3569 20.4429 9.05946 20.4011 8.12858C20.3575 7.19951 20.2102 6.56535 19.9957 6.01046C19.772 5.43647 19.4739 4.94958 18.9884 4.4645C18.503 3.97906 18.0175 3.68089 17.443 3.45817C16.8867 3.24236 16.2521 3.09527 15.3231 3.05273C14.3922 3.01036 14.0958 3 11.725 3H11.7277ZM10.9449 4.57268C11.1772 4.57232 11.4365 4.57268 11.7277 4.57268C14.0578 4.57268 14.334 4.58104 15.2542 4.62286C16.1051 4.66177 16.5669 4.80395 16.8745 4.9234C17.2817 5.08157 17.5721 5.27066 17.8774 5.57611C18.1828 5.88155 18.3719 6.17245 18.5304 6.57971C18.6499 6.88698 18.7922 7.34878 18.831 8.19966C18.8728 9.11964 18.8819 9.39599 18.8819 11.725C18.8819 14.054 18.8728 14.3304 18.831 15.2504C18.7921 16.1012 18.6499 16.5631 18.5304 16.8703C18.3723 17.2776 18.1828 17.5676 17.8774 17.8728C17.5719 18.1783 17.2819 18.3674 16.8745 18.5255C16.5672 18.6455 16.1051 18.7874 15.2542 18.8263C14.3342 18.8681 14.0578 18.8772 11.7277 18.8772C9.39744 18.8772 9.12127 18.8681 8.2013 18.8263C7.35041 18.787 6.88861 18.6448 6.5808 18.5254C6.17354 18.3672 5.88264 18.1781 5.57719 17.8727C5.27175 17.5672 5.08266 17.277 4.92412 16.8696C4.80467 16.5623 4.66231 16.1005 4.62359 15.2496C4.58177 14.3297 4.57341 14.0533 4.57341 11.7228C4.57341 9.39236 4.58177 9.11746 4.62359 8.19748C4.6625 7.3466 4.80467 6.88479 4.92412 6.57717C5.0823 6.16991 5.27175 5.87901 5.57719 5.57356C5.88264 5.26811 6.17354 5.07903 6.5808 4.92049C6.88843 4.80049 7.35041 4.65868 8.2013 4.61959C9.00636 4.58323 9.31835 4.57232 10.9449 4.5705V4.57268ZM16.3861 6.02173C15.808 6.02173 15.3389 6.49026 15.3389 7.06861C15.3389 7.64677 15.808 8.11585 16.3861 8.11585C16.9643 8.11585 17.4334 7.64677 17.4334 7.06861C17.4334 6.49044 16.9643 6.02137 16.3861 6.02137V6.02173ZM11.7277 7.24533C9.25272 7.24533 7.24605 9.252 7.24605 11.727C7.24605 14.202 9.25272 16.2078 11.7277 16.2078C14.2028 16.2078 16.2087 14.202 16.2087 11.727C16.2087 9.252 14.2028 7.24533 11.7277 7.24533ZM11.7277 8.81801C13.3342 8.81801 14.6367 10.1203 14.6367 11.727C14.6367 13.3335 13.3342 14.636 11.7277 14.636C10.1211 14.636 8.81873 13.3335 8.81873 11.727C8.81873 10.1203 10.1211 8.81801 11.7277 8.81801Z" fill="white"/>
</g>
</svg>
