<svg width="24" height="24" viewBox="0 0 24 24" fill="none" xmlns="http://www.w3.org/2000/svg">
<g id="LinkedIn_icon 1">
<g id="Group">
<path id="Vector" fill-rule="evenodd" clip-rule="evenodd" d="M20.3333 18.3333H16.7719V12.2674C16.7719 10.6043 16.1399 9.67484 14.8236 9.67484C13.3915 9.67484 12.6434 10.642 12.6434 12.2674V18.3333H9.21111V6.77778H12.6434V8.33431C12.6434 8.33431 13.6753 6.42474 16.1275 6.42474C18.5786 6.42474 20.3333 7.92149 20.3333 11.0171V18.3333ZM5.11645 5.26467C3.94735 5.26467 3 4.30989 3 3.13234C3 1.95479 3.94735 1 5.11645 1C6.28555 1 7.23234 1.95479 7.23234 3.13234C7.23234 4.30989 6.28555 5.26467 5.11645 5.26467ZM3.34418 18.3333H6.92313V6.77778H3.34418V18.3333Z" fill="white"/>
</g>
</g>
</svg>
