<svg width="24" height="24" viewBox="0 0 24 24" fill="none" xmlns="http://www.w3.org/2000/svg">
<g id="photo">
<mask id="mask0_13_1108" style="mask-type:alpha" maskUnits="userSpaceOnUse" x="0" y="0" width="24" height="24">
<rect id="Bounding box" width="24" height="24" fill="#D9D9D9"/>
</mask>
<g mask="url(#mask0_13_1108)">
<path id="photo_2" d="M8.34615 16.5H15.8077C15.9949 16.5 16.1256 16.4212 16.2 16.2635C16.2744 16.1058 16.2577 15.9564 16.15 15.8154L14.15 13.1596C14.0628 13.0519 13.9519 12.9981 13.8173 12.9981C13.6827 12.9981 13.5718 13.0519 13.4846 13.1596L11.2116 16.0385L9.80385 14.3327C9.71667 14.225 9.60577 14.1744 9.47115 14.1808C9.33653 14.1872 9.22563 14.2442 9.13845 14.3519L8.02308 15.8154C7.91537 15.9564 7.89871 16.1058 7.97308 16.2635C8.04743 16.4212 8.17178 16.5 8.34615 16.5ZM5.61538 20C5.15513 20 4.77083 19.8458 4.4625 19.5375C4.15417 19.2292 4 18.8449 4 18.3846V5.61537C4 5.15512 4.15417 4.77083 4.4625 4.4625C4.77083 4.15417 5.15513 4 5.61538 4H18.3846C18.8449 4 19.2292 4.15417 19.5375 4.4625C19.8458 4.77083 20 5.15512 20 5.61537V18.3846C20 18.8449 19.8458 19.2292 19.5375 19.5375C19.2292 19.8458 18.8449 20 18.3846 20H5.61538ZM5.61538 19H18.3846C18.5385 19 18.6795 18.9359 18.8077 18.8077C18.9359 18.6795 19 18.5385 19 18.3846V5.61537C19 5.46154 18.9359 5.32052 18.8077 5.1923C18.6795 5.0641 18.5385 5 18.3846 5H5.61538C5.46154 5 5.32052 5.0641 5.1923 5.1923C5.0641 5.32052 5 5.46154 5 5.61537V18.3846C5 18.5385 5.0641 18.6795 5.1923 18.8077C5.32052 18.9359 5.46154 19 5.61538 19Z" fill="#858585"/>
</g>
</g>
</svg>
